solid AMIsurface_z
 facet normal 0.098019 0.995185 0.000000
  outer loop
   vertex 0.000000 0.650000 -0.054167
   vertex 0.000000 0.650000 0.054167
   vertex 0.126809 0.637510 0.054167
  endloop
 endfacet
 facet normal 0.098019 0.995185 0.000000
  outer loop
   vertex 0.126809 0.637510 -0.054167
   vertex 0.000000 0.650000 -0.054167
   vertex 0.126809 0.637510 0.054167
  endloop
 endfacet
 facet normal 0.290280 0.956942 0.000000
  outer loop
   vertex 0.126809 0.637510 -0.054167
   vertex 0.126809 0.637510 0.054167
   vertex 0.248744 0.600522 0.054167
  endloop
 endfacet
 facet normal 0.290280 0.956942 0.000000
  outer loop
   vertex 0.248744 0.600522 0.054167
   vertex 0.248744 0.600522 -0.054167
   vertex 0.126809 0.637510 -0.054167
  endloop
 endfacet
 facet normal 0.471398 0.881921 0.000000
  outer loop
   vertex 0.248744 0.600522 -0.054167
   vertex 0.248744 0.600522 0.054167
   vertex 0.361120 0.540456 0.054167
  endloop
 endfacet
 facet normal 0.471398 0.881921 0.000000
  outer loop
   vertex 0.361120 0.540456 0.054167
   vertex 0.361120 0.540456 -0.054167
   vertex 0.248744 0.600522 -0.054167
  endloop
 endfacet
 facet normal 0.634394 0.773010 0.000000
  outer loop
   vertex 0.361120 0.540456 -0.054167
   vertex 0.361120 0.540456 0.054167
   vertex 0.459619 0.459619 0.054167
  endloop
 endfacet
 facet normal 0.634394 0.773010 0.000000
  outer loop
   vertex 0.459619 0.459619 0.054167
   vertex 0.459619 0.459619 -0.054167
   vertex 0.361120 0.540456 -0.054167
  endloop
 endfacet
 facet normal 0.773010 0.634394 0.000000
  outer loop
   vertex 0.459619 0.459619 -0.054167
   vertex 0.459619 0.459619 0.054167
   vertex 0.540456 0.361120 0.054167
  endloop
 endfacet
 facet normal 0.773010 0.634394 0.000000
  outer loop
   vertex 0.540456 0.361120 0.054167
   vertex 0.540456 0.361120 -0.054167
   vertex 0.459619 0.459619 -0.054167
  endloop
 endfacet
 facet normal 0.881921 0.471398 0.000000
  outer loop
   vertex 0.540456 0.361120 -0.054167
   vertex 0.540456 0.361120 0.054167
   vertex 0.600522 0.248744 0.054167
  endloop
 endfacet
 facet normal 0.881921 0.471398 0.000000
  outer loop
   vertex 0.600522 0.248744 0.054167
   vertex 0.600522 0.248744 -0.054167
   vertex 0.540456 0.361120 -0.054167
  endloop
 endfacet
 facet normal 0.956942 0.290280 0.000000
  outer loop
   vertex 0.600522 0.248744 -0.054167
   vertex 0.600522 0.248744 0.054167
   vertex 0.637510 0.126809 0.054167
  endloop
 endfacet
 facet normal 0.956942 0.290280 0.000000
  outer loop
   vertex 0.637510 0.126809 0.054167
   vertex 0.637510 0.126809 -0.054167
   vertex 0.600522 0.248744 -0.054167
  endloop
 endfacet
 facet normal 0.995185 0.098019 0.000000
  outer loop
   vertex 0.637510 0.126809 -0.054167
   vertex 0.637510 0.126809 0.054167
   vertex 0.650000 0.000000 0.054167
  endloop
 endfacet
 facet normal 0.995185 0.098019 0.000000
  outer loop
   vertex 0.650000 0.000000 0.054167
   vertex 0.650000 0.000000 -0.054167
   vertex 0.637510 0.126809 -0.054167
  endloop
 endfacet
 facet normal 0.995185 -0.098019 0.000000
  outer loop
   vertex 0.650000 0.000000 -0.054167
   vertex 0.650000 0.000000 0.054167
   vertex 0.637510 -0.126809 0.054167
  endloop
 endfacet
 facet normal 0.995185 -0.098019 0.000000
  outer loop
   vertex 0.637510 -0.126809 0.054167
   vertex 0.637510 -0.126809 -0.054167
   vertex 0.650000 0.000000 -0.054167
  endloop
 endfacet
 facet normal 0.956942 -0.290280 0.000000
  outer loop
   vertex 0.637510 -0.126809 -0.054167
   vertex 0.637510 -0.126809 0.054167
   vertex 0.600522 -0.248744 0.054167
  endloop
 endfacet
 facet normal 0.956942 -0.290280 0.000000
  outer loop
   vertex 0.600522 -0.248744 0.054167
   vertex 0.600522 -0.248744 -0.054167
   vertex 0.637510 -0.126809 -0.054167
  endloop
 endfacet
 facet normal 0.881921 -0.471398 0.000000
  outer loop
   vertex 0.600522 -0.248744 -0.054167
   vertex 0.600522 -0.248744 0.054167
   vertex 0.540456 -0.361120 0.054167
  endloop
 endfacet
 facet normal 0.881921 -0.471398 0.000000
  outer loop
   vertex 0.540456 -0.361120 0.054167
   vertex 0.540456 -0.361120 -0.054167
   vertex 0.600522 -0.248744 -0.054167
  endloop
 endfacet
 facet normal 0.773010 -0.634394 0.000000
  outer loop
   vertex 0.540456 -0.361120 -0.054167
   vertex 0.540456 -0.361120 0.054167
   vertex 0.459619 -0.459619 0.054167
  endloop
 endfacet
 facet normal 0.773010 -0.634394 0.000000
  outer loop
   vertex 0.459619 -0.459619 0.054167
   vertex 0.459619 -0.459619 -0.054167
   vertex 0.540456 -0.361120 -0.054167
  endloop
 endfacet
 facet normal 0.634394 -0.773010 0.000000
  outer loop
   vertex 0.459619 -0.459619 -0.054167
   vertex 0.459619 -0.459619 0.054167
   vertex 0.361120 -0.540456 0.054167
  endloop
 endfacet
 facet normal 0.634394 -0.773010 0.000000
  outer loop
   vertex 0.361120 -0.540456 0.054167
   vertex 0.361120 -0.540456 -0.054167
   vertex 0.459619 -0.459619 -0.054167
  endloop
 endfacet
 facet normal 0.471398 -0.881921 0.000000
  outer loop
   vertex 0.361120 -0.540456 -0.054167
   vertex 0.361120 -0.540456 0.054167
   vertex 0.248744 -0.600522 0.054167
  endloop
 endfacet
 facet normal 0.471398 -0.881921 0.000000
  outer loop
   vertex 0.248744 -0.600522 0.054167
   vertex 0.248744 -0.600522 -0.054167
   vertex 0.361120 -0.540456 -0.054167
  endloop
 endfacet
 facet normal 0.290280 -0.956942 0.000000
  outer loop
   vertex 0.248744 -0.600522 -0.054167
   vertex 0.248744 -0.600522 0.054167
   vertex 0.126809 -0.637510 0.054167
  endloop
 endfacet
 facet normal 0.290280 -0.956942 0.000000
  outer loop
   vertex 0.126809 -0.637510 0.054167
   vertex 0.126809 -0.637510 -0.054167
   vertex 0.248744 -0.600522 -0.054167
  endloop
 endfacet
 facet normal 0.098019 -0.995185 0.000000
  outer loop
   vertex 0.126809 -0.637510 -0.054167
   vertex 0.126809 -0.637510 0.054167
   vertex 0.000000 -0.650000 0.054167
  endloop
 endfacet
 facet normal 0.098019 -0.995185 0.000000
  outer loop
   vertex 0.000000 -0.650000 0.054167
   vertex 0.000000 -0.650000 -0.054167
   vertex 0.126809 -0.637510 -0.054167
  endloop
 endfacet
 facet normal -0.098019 -0.995185 0.000000
  outer loop
   vertex 0.000000 -0.650000 -0.054167
   vertex 0.000000 -0.650000 0.054167
   vertex -0.126809 -0.637510 0.054167
  endloop
 endfacet
 facet normal -0.098019 -0.995185 0.000000
  outer loop
   vertex -0.126809 -0.637510 0.054167
   vertex -0.126809 -0.637510 -0.054167
   vertex 0.000000 -0.650000 -0.054167
  endloop
 endfacet
 facet normal -0.290286 -0.956940 0.000000
  outer loop
   vertex -0.126809 -0.637510 -0.054167
   vertex -0.126809 -0.637510 0.054167
   vertex -0.248745 -0.600521 0.054167
  endloop
 endfacet
 facet normal -0.290286 -0.956940 0.000000
  outer loop
   vertex -0.248745 -0.600521 0.054167
   vertex -0.248745 -0.600521 -0.054167
   vertex -0.126809 -0.637510 -0.054167
  endloop
 endfacet
 facet normal -0.471401 -0.881919 0.000000
  outer loop
   vertex -0.248745 -0.600521 -0.054167
   vertex -0.248745 -0.600521 0.054167
   vertex -0.361120 -0.540454 0.054167
  endloop
 endfacet
 facet normal -0.471401 -0.881919 0.000000
  outer loop
   vertex -0.361120 -0.540454 0.054167
   vertex -0.361120 -0.540454 -0.054167
   vertex -0.248745 -0.600521 -0.054167
  endloop
 endfacet
 facet normal -0.634389 -0.773014 0.000000
  outer loop
   vertex -0.361120 -0.540454 -0.054167
   vertex -0.361120 -0.540454 0.054167
   vertex -0.459619 -0.459619 0.054167
  endloop
 endfacet
 facet normal -0.634389 -0.773014 0.000000
  outer loop
   vertex -0.459619 -0.459619 0.054167
   vertex -0.459619 -0.459619 -0.054167
   vertex -0.361120 -0.540454 -0.054167
  endloop
 endfacet
 facet normal -0.773010 -0.634394 0.000000
  outer loop
   vertex -0.459619 -0.459619 -0.054167
   vertex -0.459619 -0.459619 0.054167
   vertex -0.540456 -0.361120 0.054167
  endloop
 endfacet
 facet normal -0.773010 -0.634394 0.000000
  outer loop
   vertex -0.540456 -0.361120 0.054167
   vertex -0.540456 -0.361120 -0.054167
   vertex -0.459619 -0.459619 -0.054167
  endloop
 endfacet
 facet normal -0.881921 -0.471398 0.000000
  outer loop
   vertex -0.540456 -0.361120 -0.054167
   vertex -0.540456 -0.361120 0.054167
   vertex -0.600522 -0.248744 0.054167
  endloop
 endfacet
 facet normal -0.881921 -0.471398 0.000000
  outer loop
   vertex -0.600522 -0.248744 0.054167
   vertex -0.600522 -0.248744 -0.054167
   vertex -0.540456 -0.361120 -0.054167
  endloop
 endfacet
 facet normal -0.956942 -0.290280 0.000000
  outer loop
   vertex -0.600522 -0.248744 -0.054167
   vertex -0.600522 -0.248744 0.054167
   vertex -0.637510 -0.126809 0.054167
  endloop
 endfacet
 facet normal -0.956942 -0.290280 0.000000
  outer loop
   vertex -0.637510 -0.126809 0.054167
   vertex -0.637510 -0.126809 -0.054167
   vertex -0.600522 -0.248744 -0.054167
  endloop
 endfacet
 facet normal -0.995185 -0.098019 0.000000
  outer loop
   vertex -0.637510 -0.126809 -0.054167
   vertex -0.637510 -0.126809 0.054167
   vertex -0.650000 0.000000 0.054167
  endloop
 endfacet
 facet normal -0.995185 -0.098019 0.000000
  outer loop
   vertex -0.650000 0.000000 0.054167
   vertex -0.650000 0.000000 -0.054167
   vertex -0.637510 -0.126809 -0.054167
  endloop
 endfacet
 facet normal -0.995185 0.098018 0.000000
  outer loop
   vertex -0.650000 0.000000 -0.054167
   vertex -0.650000 0.000000 0.054167
   vertex -0.637510 0.126810 0.054167
  endloop
 endfacet
 facet normal -0.995185 0.098018 0.000000
  outer loop
   vertex -0.637510 0.126810 0.054167
   vertex -0.637510 0.126810 -0.054167
   vertex -0.650000 0.000000 -0.054167
  endloop
 endfacet
 facet normal -0.956939 0.290288 0.000000
  outer loop
   vertex -0.637510 0.126810 -0.054167
   vertex -0.637510 0.126810 0.054167
   vertex -0.600521 0.248745 0.054167
  endloop
 endfacet
 facet normal -0.956939 0.290288 0.000000
  outer loop
   vertex -0.600521 0.248745 0.054167
   vertex -0.600521 0.248745 -0.054167
   vertex -0.637510 0.126810 -0.054167
  endloop
 endfacet
 facet normal -0.881921 0.471397 0.000000
  outer loop
   vertex -0.600521 0.248745 -0.054167
   vertex -0.600521 0.248745 0.054167
   vertex -0.540454 0.361122 0.054167
  endloop
 endfacet
 facet normal -0.881921 0.471397 0.000000
  outer loop
   vertex -0.540454 0.361122 0.054167
   vertex -0.540454 0.361122 -0.054167
   vertex -0.600521 0.248745 -0.054167
  endloop
 endfacet
 facet normal -0.773010 0.634394 0.000000
  outer loop
   vertex -0.540454 0.361122 -0.054167
   vertex -0.540454 0.361122 0.054167
   vertex -0.459619 0.459619 0.054167
  endloop
 endfacet
 facet normal -0.773010 0.634394 0.000000
  outer loop
   vertex -0.459619 0.459619 0.054167
   vertex -0.459619 0.459619 -0.054167
   vertex -0.540454 0.361122 -0.054167
  endloop
 endfacet
 facet normal -0.634394 0.773010 0.000000
  outer loop
   vertex -0.459619 0.459619 -0.054167
   vertex -0.459619 0.459619 0.054167
   vertex -0.361120 0.540456 0.054167
  endloop
 endfacet
 facet normal -0.634394 0.773010 0.000000
  outer loop
   vertex -0.361120 0.540456 0.054167
   vertex -0.361120 0.540456 -0.054167
   vertex -0.459619 0.459619 -0.054167
  endloop
 endfacet
 facet normal -0.471398 0.881921 0.000000
  outer loop
   vertex -0.361120 0.540456 -0.054167
   vertex -0.361120 0.540456 0.054167
   vertex -0.248744 0.600522 0.054167
  endloop
 endfacet
 facet normal -0.471398 0.881921 0.000000
  outer loop
   vertex -0.248744 0.600522 0.054167
   vertex -0.248744 0.600522 -0.054167
   vertex -0.361120 0.540456 -0.054167
  endloop
 endfacet
 facet normal 0.000000 0.000000 1.000000
  outer loop
   vertex 0.126809 0.637510 0.054167
   vertex 0.000000 0.650000 0.054167
   vertex -0.126809 0.637510 0.054167
  endloop
 endfacet
 facet normal 0.000000 0.000000 1.000000
  outer loop
   vertex 0.126809 0.637510 0.054167
   vertex -0.126809 0.637510 0.054167
   vertex -0.248744 0.600522 0.054167
  endloop
 endfacet
 facet normal 0.000000 0.000000 1.000000
  outer loop
   vertex 0.126809 0.637510 0.054167
   vertex -0.248744 0.600522 0.054167
   vertex 0.248744 0.600522 0.054167
  endloop
 endfacet
 facet normal 0.000000 0.000000 1.000000
  outer loop
   vertex -0.248744 0.600522 0.054167
   vertex -0.361120 0.540456 0.054167
   vertex 0.248744 0.600522 0.054167
  endloop
 endfacet
 facet normal 0.000000 0.000000 1.000000
  outer loop
   vertex -0.361120 0.540456 0.054167
   vertex 0.361120 0.540456 0.054167
   vertex 0.248744 0.600522 0.054167
  endloop
 endfacet
 facet normal 0.000000 0.000000 1.000000
  outer loop
   vertex -0.361120 0.540456 0.054167
   vertex -0.459619 0.459619 0.054167
   vertex 0.361120 0.540456 0.054167
  endloop
 endfacet
 facet normal 0.000000 0.000000 1.000000
  outer loop
   vertex -0.459619 0.459619 0.054167
   vertex 0.459619 0.459619 0.054167
   vertex 0.361120 0.540456 0.054167
  endloop
 endfacet
 facet normal 0.000000 0.000000 1.000000
  outer loop
   vertex -0.459619 0.459619 0.054167
   vertex -0.540454 0.361122 0.054167
   vertex 0.459619 0.459619 0.054167
  endloop
 endfacet
 facet normal 0.000000 0.000000 1.000000
  outer loop
   vertex -0.540454 0.361122 0.054167
   vertex 0.540456 0.361120 0.054167
   vertex 0.459619 0.459619 0.054167
  endloop
 endfacet
 facet normal 0.000000 0.000000 1.000000
  outer loop
   vertex -0.540454 0.361122 0.054167
   vertex -0.600521 0.248745 0.054167
   vertex 0.540456 0.361120 0.054167
  endloop
 endfacet
 facet normal 0.000000 0.000000 1.000000
  outer loop
   vertex -0.600521 0.248745 0.054167
   vertex 0.600522 0.248744 0.054167
   vertex 0.540456 0.361120 0.054167
  endloop
 endfacet
 facet normal 0.000000 0.000000 1.000000
  outer loop
   vertex -0.600521 0.248745 0.054167
   vertex -0.637510 0.126810 0.054167
   vertex 0.600522 0.248744 0.054167
  endloop
 endfacet
 facet normal 0.000000 0.000000 1.000000
  outer loop
   vertex -0.637510 0.126810 0.054167
   vertex 0.637510 0.126809 0.054167
   vertex 0.600522 0.248744 0.054167
  endloop
 endfacet
 facet normal 0.000000 0.000000 1.000000
  outer loop
   vertex -0.637510 0.126810 0.054167
   vertex -0.650000 0.000000 0.054167
   vertex 0.637510 0.126809 0.054167
  endloop
 endfacet
 facet normal 0.000000 0.000000 1.000000
  outer loop
   vertex -0.650000 0.000000 0.054167
   vertex 0.650000 0.000000 0.054167
   vertex 0.637510 0.126809 0.054167
  endloop
 endfacet
 facet normal 0.000000 0.000000 1.000000
  outer loop
   vertex -0.650000 0.000000 0.054167
   vertex -0.637510 -0.126809 0.054167
   vertex 0.650000 0.000000 0.054167
  endloop
 endfacet
 facet normal 0.000000 0.000000 1.000000
  outer loop
   vertex -0.637510 -0.126809 0.054167
   vertex 0.637510 -0.126809 0.054167
   vertex 0.650000 0.000000 0.054167
  endloop
 endfacet
 facet normal 0.000000 0.000000 1.000000
  outer loop
   vertex -0.637510 -0.126809 0.054167
   vertex -0.600522 -0.248744 0.054167
   vertex 0.637510 -0.126809 0.054167
  endloop
 endfacet
 facet normal 0.000000 0.000000 1.000000
  outer loop
   vertex -0.600522 -0.248744 0.054167
   vertex 0.600522 -0.248744 0.054167
   vertex 0.637510 -0.126809 0.054167
  endloop
 endfacet
 facet normal 0.000000 0.000000 1.000000
  outer loop
   vertex -0.600522 -0.248744 0.054167
   vertex -0.540456 -0.361120 0.054167
   vertex 0.600522 -0.248744 0.054167
  endloop
 endfacet
 facet normal 0.000000 0.000000 1.000000
  outer loop
   vertex -0.540456 -0.361120 0.054167
   vertex 0.540456 -0.361120 0.054167
   vertex 0.600522 -0.248744 0.054167
  endloop
 endfacet
 facet normal 0.000000 0.000000 1.000000
  outer loop
   vertex -0.540456 -0.361120 0.054167
   vertex -0.459619 -0.459619 0.054167
   vertex 0.540456 -0.361120 0.054167
  endloop
 endfacet
 facet normal 0.000000 0.000000 1.000000
  outer loop
   vertex -0.459619 -0.459619 0.054167
   vertex 0.459619 -0.459619 0.054167
   vertex 0.540456 -0.361120 0.054167
  endloop
 endfacet
 facet normal 0.000000 0.000000 1.000000
  outer loop
   vertex -0.459619 -0.459619 0.054167
   vertex -0.361120 -0.540454 0.054167
   vertex 0.459619 -0.459619 0.054167
  endloop
 endfacet
 facet normal 0.000000 0.000000 1.000000
  outer loop
   vertex -0.361120 -0.540454 0.054167
   vertex 0.361120 -0.540456 0.054167
   vertex 0.459619 -0.459619 0.054167
  endloop
 endfacet
 facet normal 0.000000 0.000000 1.000000
  outer loop
   vertex -0.361120 -0.540454 0.054167
   vertex -0.248745 -0.600521 0.054167
   vertex 0.361120 -0.540456 0.054167
  endloop
 endfacet
 facet normal 0.000000 0.000000 1.000000
  outer loop
   vertex -0.248745 -0.600521 0.054167
   vertex 0.248744 -0.600522 0.054167
   vertex 0.361120 -0.540456 0.054167
  endloop
 endfacet
 facet normal 0.000000 0.000000 1.000000
  outer loop
   vertex -0.248745 -0.600521 0.054167
   vertex -0.126809 -0.637510 0.054167
   vertex 0.248744 -0.600522 0.054167
  endloop
 endfacet
 facet normal 0.000000 0.000000 1.000000
  outer loop
   vertex -0.126809 -0.637510 0.054167
   vertex 0.126809 -0.637510 0.054167
   vertex 0.248744 -0.600522 0.054167
  endloop
 endfacet
 facet normal 0.000000 0.000000 1.000000
  outer loop
   vertex -0.126809 -0.637510 0.054167
   vertex 0.000000 -0.650000 0.054167
   vertex 0.126809 -0.637510 0.054167
  endloop
 endfacet
 facet normal -0.098019 0.995185 0.000000
  outer loop
   vertex 0.000000 0.650000 0.054167
   vertex 0.000000 0.650000 -0.054167
   vertex -0.126809 0.637510 -0.054167
  endloop
 endfacet
 facet normal -0.098019 0.995185 0.000000
  outer loop
   vertex -0.126809 0.637510 -0.054167
   vertex -0.126809 0.637510 0.054167
   vertex 0.000000 0.650000 0.054167
  endloop
 endfacet
 facet normal -0.290280 0.956942 0.000000
  outer loop
   vertex -0.248744 0.600522 -0.054167
   vertex -0.248744 0.600522 0.054167
   vertex -0.126809 0.637510 0.054167
  endloop
 endfacet
 facet normal -0.290280 0.956942 0.000000
  outer loop
   vertex -0.126809 0.637510 0.054167
   vertex -0.126809 0.637510 -0.054167
   vertex -0.248744 0.600522 -0.054167
  endloop
 endfacet
 facet normal 0.000000 0.000000 -1.000000
  outer loop
   vertex 0.000000 0.650000 -0.054167
   vertex 0.126809 0.637510 -0.054167
   vertex -0.126809 0.637510 -0.054167
  endloop
 endfacet
 facet normal 0.000000 0.000000 -1.000000
  outer loop
   vertex 0.126809 0.637510 -0.054167
   vertex -0.248744 0.600522 -0.054167
   vertex -0.126809 0.637510 -0.054167
  endloop
 endfacet
 facet normal 0.000000 0.000000 -1.000000
  outer loop
   vertex 0.126809 0.637510 -0.054167
   vertex 0.248744 0.600522 -0.054167
   vertex -0.248744 0.600522 -0.054167
  endloop
 endfacet
 facet normal 0.000000 0.000000 -1.000000
  outer loop
   vertex 0.248744 0.600522 -0.054167
   vertex -0.361120 0.540456 -0.054167
   vertex -0.248744 0.600522 -0.054167
  endloop
 endfacet
 facet normal 0.000000 0.000000 -1.000000
  outer loop
   vertex 0.248744 0.600522 -0.054167
   vertex 0.361120 0.540456 -0.054167
   vertex -0.361120 0.540456 -0.054167
  endloop
 endfacet
 facet normal 0.000000 0.000000 -1.000000
  outer loop
   vertex 0.361120 0.540456 -0.054167
   vertex -0.459619 0.459619 -0.054167
   vertex -0.361120 0.540456 -0.054167
  endloop
 endfacet
 facet normal 0.000000 0.000000 -1.000000
  outer loop
   vertex 0.361120 0.540456 -0.054167
   vertex 0.459619 0.459619 -0.054167
   vertex -0.459619 0.459619 -0.054167
  endloop
 endfacet
 facet normal 0.000000 0.000000 -1.000000
  outer loop
   vertex 0.459619 0.459619 -0.054167
   vertex -0.540454 0.361122 -0.054167
   vertex -0.459619 0.459619 -0.054167
  endloop
 endfacet
 facet normal 0.000000 0.000000 -1.000000
  outer loop
   vertex 0.459619 0.459619 -0.054167
   vertex 0.540456 0.361120 -0.054167
   vertex -0.540454 0.361122 -0.054167
  endloop
 endfacet
 facet normal 0.000000 0.000000 -1.000000
  outer loop
   vertex 0.540456 0.361120 -0.054167
   vertex -0.600521 0.248745 -0.054167
   vertex -0.540454 0.361122 -0.054167
  endloop
 endfacet
 facet normal 0.000000 0.000000 -1.000000
  outer loop
   vertex 0.540456 0.361120 -0.054167
   vertex 0.600522 0.248744 -0.054167
   vertex -0.600521 0.248745 -0.054167
  endloop
 endfacet
 facet normal 0.000000 0.000000 -1.000000
  outer loop
   vertex 0.600522 0.248744 -0.054167
   vertex -0.637510 0.126810 -0.054167
   vertex -0.600521 0.248745 -0.054167
  endloop
 endfacet
 facet normal 0.000000 0.000000 -1.000000
  outer loop
   vertex 0.600522 0.248744 -0.054167
   vertex 0.637510 0.126809 -0.054167
   vertex -0.637510 0.126810 -0.054167
  endloop
 endfacet
 facet normal 0.000000 0.000000 -1.000000
  outer loop
   vertex 0.637510 0.126809 -0.054167
   vertex -0.650000 0.000000 -0.054167
   vertex -0.637510 0.126810 -0.054167
  endloop
 endfacet
 facet normal 0.000000 0.000000 -1.000000
  outer loop
   vertex 0.637510 0.126809 -0.054167
   vertex 0.650000 0.000000 -0.054167
   vertex -0.650000 0.000000 -0.054167
  endloop
 endfacet
 facet normal 0.000000 0.000000 -1.000000
  outer loop
   vertex 0.650000 0.000000 -0.054167
   vertex -0.637510 -0.126809 -0.054167
   vertex -0.650000 0.000000 -0.054167
  endloop
 endfacet
 facet normal 0.000000 0.000000 -1.000000
  outer loop
   vertex 0.650000 0.000000 -0.054167
   vertex 0.637510 -0.126809 -0.054167
   vertex -0.637510 -0.126809 -0.054167
  endloop
 endfacet
 facet normal 0.000000 0.000000 -1.000000
  outer loop
   vertex 0.637510 -0.126809 -0.054167
   vertex -0.600522 -0.248744 -0.054167
   vertex -0.637510 -0.126809 -0.054167
  endloop
 endfacet
 facet normal 0.000000 0.000000 -1.000000
  outer loop
   vertex 0.637510 -0.126809 -0.054167
   vertex 0.600522 -0.248744 -0.054167
   vertex -0.600522 -0.248744 -0.054167
  endloop
 endfacet
 facet normal 0.000000 0.000000 -1.000000
  outer loop
   vertex 0.600522 -0.248744 -0.054167
   vertex -0.540456 -0.361120 -0.054167
   vertex -0.600522 -0.248744 -0.054167
  endloop
 endfacet
 facet normal 0.000000 0.000000 -1.000000
  outer loop
   vertex 0.600522 -0.248744 -0.054167
   vertex 0.540456 -0.361120 -0.054167
   vertex -0.540456 -0.361120 -0.054167
  endloop
 endfacet
 facet normal 0.000000 0.000000 -1.000000
  outer loop
   vertex 0.540456 -0.361120 -0.054167
   vertex -0.459619 -0.459619 -0.054167
   vertex -0.540456 -0.361120 -0.054167
  endloop
 endfacet
 facet normal 0.000000 0.000000 -1.000000
  outer loop
   vertex 0.540456 -0.361120 -0.054167
   vertex 0.459619 -0.459619 -0.054167
   vertex -0.459619 -0.459619 -0.054167
  endloop
 endfacet
 facet normal 0.000000 0.000000 -1.000000
  outer loop
   vertex 0.459619 -0.459619 -0.054167
   vertex -0.361120 -0.540454 -0.054167
   vertex -0.459619 -0.459619 -0.054167
  endloop
 endfacet
 facet normal 0.000000 0.000000 -1.000000
  outer loop
   vertex 0.459619 -0.459619 -0.054167
   vertex 0.361120 -0.540456 -0.054167
   vertex -0.361120 -0.540454 -0.054167
  endloop
 endfacet
 facet normal 0.000000 0.000000 -1.000000
  outer loop
   vertex 0.361120 -0.540456 -0.054167
   vertex -0.248745 -0.600521 -0.054167
   vertex -0.361120 -0.540454 -0.054167
  endloop
 endfacet
 facet normal 0.000000 0.000000 -1.000000
  outer loop
   vertex 0.361120 -0.540456 -0.054167
   vertex 0.248744 -0.600522 -0.054167
   vertex -0.248745 -0.600521 -0.054167
  endloop
 endfacet
 facet normal 0.000000 0.000000 -1.000000
  outer loop
   vertex 0.248744 -0.600522 -0.054167
   vertex -0.126809 -0.637510 -0.054167
   vertex -0.248745 -0.600521 -0.054167
  endloop
 endfacet
 facet normal 0.000000 0.000000 -1.000000
  outer loop
   vertex 0.248744 -0.600522 -0.054167
   vertex 0.126809 -0.637510 -0.054167
   vertex -0.126809 -0.637510 -0.054167
  endloop
 endfacet
 facet normal 0.000000 0.000000 -1.000000
  outer loop
   vertex 0.126809 -0.637510 -0.054167
   vertex 0.000000 -0.650000 -0.054167
   vertex -0.126809 -0.637510 -0.054167
  endloop
 endfacet
endsolid AMIsurface_z
